<svg width="253" height="211" viewBox="0 0 253 211" fill="none" xmlns="http://www.w3.org/2000/svg">
<path d="M5.99449 74.9365C14.7864 79.9985 27.6413 101.753 32.9697 111.998C33.6358 102.959 36.5664 83.4335 38.9642 74.0326C41.362 64.6316 13.6541 59.5696 0 58.6656L3.99633 64.0892L5.99449 74.9365Z" fill="#FFA387"/>
<path d="M211.551 170.474C216.218 172.302 226.298 174.497 229.284 168.645C232.271 162.794 230.529 152.798 229.284 148.532C228.04 146.094 224.618 143.046 220.884 150.36C217.151 157.674 228.662 164.988 234.884 167.731C236.751 168.95 242.164 168.828 248.884 158.589" stroke="#FC857B" stroke-width="2"/>
<path d="M42.6669 50.1103C60.4443 6.0223 103.11 3.88892 122.665 3.88892C186.664 3.88805 206.812 29.9627 207.108 47.4441V75.888C214.219 70.1992 240.292 64.0363 252.44 61.666L247.107 68.777L245.329 76.7768C215.463 103.087 210.367 119.739 211.552 124.776C212.737 149.071 215.108 198.551 215.108 202.106L221.33 210.106H200.886C192.293 203.292 174.575 189.664 172.442 189.664C129.776 201.218 56.8888 186.997 42.6669 178.997C28.4449 170.997 20.4451 105.22 42.6669 50.1103Z" fill="#FFB699"/>
<path d="M135.997 74.9977C135.997 87.2705 126.22 98.9972 103.109 97.2195C78.2208 98.9972 70.2209 87.2705 70.2209 74.9977C70.2209 62.7249 84.9455 50.9982 103.109 50.9982C121.273 50.9982 135.997 62.7249 135.997 74.9977Z" fill="#FE7857"/>
<circle cx="87.9985" cy="75.8866" r="5.33323" fill="#CC2800"/>
<ellipse cx="112.887" cy="74.9977" rx="8.88872" ry="7.99985" fill="#CC2800"/>
<path d="M54.2219 64.3316C57.7774 55.4429 66.6661 42.4653 73.7771 61.665" stroke="#551F0E" stroke-width="2"/>
<path d="M140.442 65.2197C144.644 52.6836 156.038 39.9196 164.441 66.9976" stroke="#5D2210" stroke-width="2"/>
<path d="M63.998 7.44341C62.5758 8.8656 47.9983 19.8876 40.8873 25.2208C36.443 31.4429 47.9982 42.9982 51.5537 46.5537L51.5538 46.5537C54.3982 49.3981 69.3312 41.2205 76.4422 36.7761C77.9236 34.4058 80.3532 27.5319 78.2199 18.9987C75.5533 8.33228 65.7757 5.66567 63.998 7.44341Z" fill="#FF8B6F"/>
<path d="M217.374 26.0712C215.44 24.9228 199.624 12.2703 191.959 6.08761C178.663 1.22127 173.848 24.1416 170.664 28.7766C168.116 32.4846 178.663 48.4366 189.329 51.8857C192.347 52.8614 197.09 53.5881 206.218 49.2194C217.629 43.7586 219.792 27.5066 217.374 26.0712Z" fill="#FF8B6F"/>
<path d="M39.1106 175.108C39.4244 175.606 39.757 176.145 40.1048 176.718C46.0368 181.829 76.5298 187.971 77.3321 188.773C78.0432 189.484 72.2951 202.699 69.3322 209.217H50.6659C51.2585 207.736 52.6214 204.417 53.3325 202.995C53.9993 201.662 45.3394 185.342 40.1048 176.718C39.4647 176.167 39.1106 175.627 39.1106 175.108Z" fill="#FA987D"/>
<path d="M51.5552 183.108C59.7264 185.66 76.1439 190.342 76.8702 191.107L76.2125 192.885L75.1611 195.552L51.5552 183.108Z" fill="#FC7C69"/>
<path d="M205.419 172.774C205.419 174.907 185.152 186.07 175.375 191.107L181.419 194.995C190.012 189.07 206.841 176.329 205.419 172.774Z" fill="#F39272"/>
</svg>
