<svg width="33" height="32" viewBox="0 0 33 32" fill="none" xmlns="http://www.w3.org/2000/svg">
<path d="M2.88953 27.3252C3.04729 28.7654 4.19121 29.9084 5.63108 30.0696C9.27585 30.4779 13.0832 31 17 31C20.9168 31 24.7241 30.4779 28.3689 30.0696C29.8088 29.9084 30.9527 28.7654 31.1105 27.3252C31.5082 23.6943 32 19.9016 32 16C32 12.0984 31.5082 8.30572 31.1105 4.67484C30.9527 3.23458 29.8088 2.09163 28.3689 1.93036C24.7242 1.52212 20.9168 1 17 1C13.0832 1 9.27585 1.52212 5.63108 1.93036C4.19121 2.09163 3.04729 3.23458 2.88953 4.67484C2.49184 8.30571 2 12.0984 2 16C2 19.9016 2.49184 23.6943 2.88953 27.3252Z" fill="#D7E0FF"/>
<path d="M31.1105 4.67484L30.3649 4.7565L31.1105 4.67484ZM28.3689 1.93036L28.4524 1.18502L28.3689 1.93036ZM28.3689 30.0696L28.4524 30.815L28.3689 30.0696ZM31.1105 27.3252L31.856 27.4068L31.1105 27.3252ZM5.63108 30.0696L5.5476 30.815L5.63108 30.0696ZM17 30.25C13.1367 30.25 9.38507 29.7354 5.71456 29.3243L5.5476 30.815C9.16663 31.2203 13.0297 31.75 17 31.75V30.25ZM28.2854 29.3243C24.6149 29.7354 20.8633 30.25 17 30.25V31.75C20.9703 31.75 24.8334 31.2203 28.4524 30.815L28.2854 29.3243ZM31.856 27.4068C32.2514 23.7974 32.75 19.9533 32.75 16H31.25C31.25 19.85 30.765 23.5911 30.3649 27.2435L31.856 27.4068ZM32.75 16C32.75 12.0467 32.2514 8.20258 31.856 4.59318L30.3649 4.7565C30.765 8.40885 31.25 12.15 31.25 16H32.75ZM17 1.75C20.8633 1.75 24.6149 2.26458 28.2854 2.6757L28.4524 1.18502C24.8334 0.779666 20.9703 0.25 17 0.25V1.75ZM5.71456 2.6757C9.38507 2.26458 13.1367 1.75 17 1.75V0.25C13.0297 0.25 9.16663 0.779665 5.5476 1.18502L5.71456 2.6757ZM2.14399 4.59318C1.74865 8.20258 1.25 12.0467 1.25 16H2.75C2.75 12.15 3.23502 8.40885 3.63507 4.7565L2.14399 4.59318ZM1.25 16C1.25 19.9533 1.74865 23.7974 2.14399 27.4068L3.63508 27.2435C3.23502 23.5911 2.75 19.85 2.75 16H1.25ZM31.856 4.59318C31.6599 2.8028 30.2398 1.38522 28.4524 1.18502L28.2854 2.6757C29.3777 2.79804 30.2455 3.66636 30.3649 4.7565L31.856 4.59318ZM28.4524 30.815C30.2398 30.6148 31.6599 29.1972 31.856 27.4068L30.3649 27.2435C30.2455 28.3336 29.3777 29.202 28.2854 29.3243L28.4524 30.815ZM5.5476 1.18502C3.76018 1.38522 2.3401 2.8028 2.14399 4.59318L3.63507 4.7565C3.75448 3.66636 4.62225 2.79804 5.71456 2.6757L5.5476 1.18502ZM5.71456 29.3243C4.62225 29.202 3.75448 28.3336 3.63508 27.2435L2.14399 27.4068C2.3401 29.1972 3.76018 30.6148 5.5476 30.815L5.71456 29.3243Z" fill="#A0C4FF"/>
<path d="M13.2877 11.2271C12.9948 10.9342 12.5199 10.9342 12.2271 11.2271C11.9342 11.5199 11.9342 11.9948 12.2271 12.2877L13.2877 11.2271ZM20.7123 20.773C21.0052 21.0659 21.4801 21.0659 21.773 20.773C22.0659 20.4801 22.0659 20.0052 21.773 19.7123L20.7123 20.773ZM12.2271 12.2877L20.7123 20.773L21.773 19.7123L13.2877 11.2271L12.2271 12.2877Z" fill="#A0C4FF"/>
<path d="M21.773 12.2877C22.0659 11.9948 22.0659 11.5199 21.773 11.227C21.4801 10.9341 21.0053 10.9341 20.7124 11.227L21.773 12.2877ZM12.2271 19.7123C11.9342 20.0052 11.9342 20.4801 12.2271 20.773C12.52 21.0659 12.9949 21.0659 13.2878 20.773L12.2271 19.7123ZM20.7124 11.227L12.2271 19.7123L13.2878 20.773L21.773 12.2877L20.7124 11.227Z" fill="#A0C4FF"/>
</svg>
