<svg width="333" height="373" viewBox="0 0 333 373" fill="none" xmlns="http://www.w3.org/2000/svg">
<path d="M178.82 21.3854L166.045 17.1269C159.231 14.8558 148.065 43.6241 143.333 58.2922C140.494 81.0042 146 89.4826 133.509 105.381C117.894 125.254 110.797 133.525 110.797 152.224C112.104 186.047 102.168 191.725 92.2314 207.339C81.3916 224.373 75.7652 248.504 78.0364 259.86C80.3076 271.216 62.8952 294.874 53.905 305.284L66.6805 310.835C67.6268 309.416 70.655 305.284 75.1974 299.606C80.8754 292.509 92.2314 266.208 92.2314 259.86C92.2314 247.085 90.8119 231.47 100.748 221.534C110.685 211.597 123.46 183.208 123.46 164.754C124.88 153.398 131.409 127.28 146.172 113.652C164.626 96.6185 156.109 69.6482 157.528 58.2922C158.664 49.2075 172.196 29.9024 178.82 21.3854Z" fill="#E04032"/>
<path d="M190.177 25.517L178.821 21.4006C172.007 19.1194 159.421 46.5802 154.689 61.3127C151.85 84.1246 157.356 92.6403 144.865 108.608C129.25 128.569 120.621 135.91 120.621 154.691C121.929 188.662 113.524 195.332 103.588 211.015C92.7477 228.124 89.3925 252.137 89.3925 263.767C89.3925 273.928 73.7781 299.479 66.6807 310.835L76.6171 315.094C78.0366 313.674 82.0112 309.391 86.5536 303.688C92.2315 296.559 103.588 270.143 103.588 263.767C103.588 250.935 102.168 235.252 112.104 225.272C122.041 215.292 134.816 186.777 134.816 168.243C136.236 156.837 142.766 130.603 157.528 116.916C175.982 99.8075 167.465 72.7186 168.884 61.3127C170.02 52.188 183.552 34.0714 190.177 25.517Z" fill="#FFA98E"/>
<path d="M204.371 29.9719L191.306 25.6954C184.337 23.4146 173.723 43.4804 168.884 58.2104C165.98 81.0183 170.805 98.3567 158.03 114.322C142.06 134.279 134.802 142.585 134.802 161.363C129.138 195.877 127.585 202.199 115.814 216.711C99.3288 237.036 102.831 259.647 100.748 271.098C97.9093 286.709 85.8114 304.616 76.6169 315.069L89.6827 320.771C90.6506 319.346 93.7476 315.069 98.3932 309.368C104.2 302.24 115.814 275.829 115.814 269.454C115.814 256.625 114.363 240.944 124.525 230.966C134.687 220.987 147.753 192.477 147.753 173.946C149.205 162.542 155.883 136.313 170.981 122.629C189.854 105.523 181.143 78.4384 182.595 67.0345C183.756 57.9114 197.596 38.5248 204.371 29.9719Z" fill="#FF8D5B"/>
<path d="M212.888 32.7606L200.113 28.4834C193.299 26.2023 182.132 55.0971 177.401 69.8297C174.562 92.6415 180.068 101.157 167.576 117.125C151.962 137.086 144.864 145.394 144.864 164.175C146.172 198.146 136.235 203.849 126.299 219.532C115.459 236.641 109.833 260.878 112.104 272.284C114.375 283.69 95.5433 308.897 86.5532 319.352L99.3287 325.03C100.275 323.604 104.723 317.908 109.265 312.205C114.943 305.076 126.299 278.66 126.299 272.284C126.299 259.452 124.88 243.769 134.816 233.789C144.752 223.809 157.528 195.294 157.528 176.76C158.947 165.354 165.477 139.12 180.24 125.433C198.693 108.325 190.176 81.2356 191.596 69.8297C192.731 60.705 206.264 41.315 212.888 32.7606Z" fill="#FFA98E"/>
<path d="M225.664 36.8727L212.888 32.6142C205.765 30.3111 194.93 58.193 189.983 73.0673C187.015 96.0984 192.771 104.696 179.712 120.818C163.388 140.97 155.967 149.358 155.967 168.319C157.334 202.617 146.946 208.375 136.558 224.209C125.226 241.482 119.344 265.953 121.718 277.468C124.093 288.984 107.846 313.674 99.3289 325.03L109.846 329.288C110.835 327.849 114.001 323.53 118.75 317.773C124.686 310.575 136.558 283.906 136.558 277.468C136.558 264.513 135.074 248.679 145.462 238.603C155.851 228.527 169.207 199.738 169.207 181.025C170.691 169.51 177.517 143.024 192.951 129.206C212.243 111.932 203.339 84.5828 204.823 73.0673C206.01 63.8548 218.738 45.5093 225.664 36.8727Z" fill="#E04032"/>
<path d="M291.572 89.854L283.295 79.2312C278.881 73.5657 253.647 91.3295 241.582 100.92C226.636 118.255 226.523 128.364 207.316 134.679C183.307 142.573 172.815 145.527 162.456 161.094C144.807 189.977 133.389 189.199 116.467 196.693C98.0058 204.869 79.953 221.842 75.5526 232.554C71.1522 243.266 43.5494 253.316 30.298 257.001L37.8585 268.7C39.4328 268.043 44.2427 266.281 51.1699 264.07C59.8289 261.307 83.8533 245.703 87.3701 240.418C94.4477 229.782 101.916 215.997 115.693 213.229C129.47 210.462 155.834 193.904 166.057 178.541C173.53 169.874 193.436 151.747 213.276 148.581C238.075 144.623 245.926 117.451 253.399 108.784C259.378 101.85 281.339 93.2747 291.572 89.854Z" fill="#E04032"/>
<path d="M298.738 99.5845L291.565 89.8664C287.156 84.1926 261.465 100.081 249.364 109.725C234.362 127.144 234.229 137.283 214.983 143.657C190.926 151.624 179.675 152.955 169.27 168.59C151.539 197.596 140.846 198.493 123.886 206.044C105.383 214.282 89.2864 232.415 82.8435 242.097C77.2143 250.557 50.0596 263.178 37.8597 268.7L43.7728 277.75C45.7409 277.355 51.423 275.99 58.364 273.759C67.0403 270.97 91.1287 255.27 94.6611 249.961C101.77 239.279 109.276 225.436 123.078 222.632C136.879 219.828 163.312 203.167 173.58 187.737C181.081 179.027 201.05 160.805 220.923 157.589C245.764 153.569 253.681 126.298 261.181 117.589C267.182 110.622 288.484 103.036 298.738 99.5845Z" fill="#FFA98E"/>
<path d="M308.086 111.158L299.578 100.359C295.04 94.5999 275.088 105.425 262.898 115.007C247.846 132.386 242.257 149.494 222.776 155.708C198.425 163.475 187.78 166.369 177.378 182.002C153.542 207.598 148.747 212 130.908 217.561C105.924 225.348 96.3119 246.113 88.235 254.492C77.2226 265.916 57.2305 274.121 43.7847 277.731L51.5033 289.716C53.0988 289.065 58.0463 287.221 65.0727 285.048C73.8558 282.331 98.1565 266.777 101.688 261.47C108.796 250.789 116.274 236.931 130.262 234.254C144.251 231.576 170.923 215.08 181.189 199.652C188.715 190.963 208.806 172.826 228.957 169.798C254.145 166.012 261.898 138.639 269.425 129.949C275.446 122.997 297.708 114.525 308.086 111.158Z" fill="#FF8D5B"/>
<path d="M313.634 118.197L305.367 107.559C300.959 101.885 275.655 119.754 263.554 129.398C248.552 146.816 248.418 156.956 229.173 163.33C205.115 171.297 194.604 174.281 184.199 189.917C166.468 218.923 155.036 218.166 138.076 225.717C119.573 233.955 101.461 251.016 97.0334 261.77C92.6053 272.524 62.9629 283.076 49.6862 286.8L57.1764 298.605C58.7541 297.942 65.6129 295.663 72.5539 293.432C81.2302 290.643 105.319 274.943 108.851 269.634C115.96 258.952 123.466 245.109 137.268 242.305C151.069 239.501 177.502 222.84 187.77 207.41C195.27 198.7 215.24 180.478 235.113 177.262C259.954 173.242 267.87 145.971 275.371 137.262C281.372 130.295 303.38 121.649 313.634 118.197Z" fill="#FFA98E"/>
<path d="M321.991 128.699L313.714 118.076C309.06 112.212 284.593 129.421 272.234 139.064C257.004 156.593 257.033 166.94 237.229 173.127C212.475 180.86 201.651 183.733 191.146 199.518C173.283 228.829 161.445 227.868 144.025 235.295C125.021 243.397 106.567 260.51 102.165 271.413C97.7616 282.315 70.5577 293.869 57.176 298.605L63.5725 307.976C65.1936 307.326 70.2216 305.485 77.3649 303.322C86.2941 300.619 110.953 284.993 114.519 279.634C121.696 268.849 129.233 254.845 143.463 252.211C157.694 249.578 184.762 233.01 195.129 217.431C202.744 208.666 223.1 190.398 243.604 187.444C269.235 183.752 276.974 156.05 284.589 147.285C290.681 140.274 311.441 132.052 321.991 128.699Z" fill="#E04032"/>
<path d="M11.3266 88.6897C6.74879 72.146 15.8558 60.9054 17.5347 60.0014C16.5846 68.9614 18.6049 87.7271 34.2871 91.1097C53.8899 95.338 65.6605 100.47 73.7463 112.102C82.7735 125.089 76.4863 144.461 75.5071 150.371C75.4735 150.698 75.4341 151.023 75.3891 151.347C75.4022 151.083 75.4434 150.755 75.5071 150.371C77.1305 134.588 65.4356 115.966 45.7493 112.394C19.3466 107.604 13.8093 97.6617 11.3266 88.6897Z" fill="#343232" fill-opacity="0.77"/>
<path d="M47.2889 40.6134C42.7794 23.5881 52.0178 12.355 53.7138 11.4774C52.7028 20.6043 54.6236 39.8295 70.3943 43.7146C90.1078 48.571 101.929 54.1356 110.001 66.2402C119.012 79.7542 112.564 99.3712 111.542 105.381C111.506 105.714 111.465 106.046 111.417 106.376C111.432 106.105 111.476 105.772 111.542 105.381C113.272 89.3033 101.609 69.9599 81.8074 65.7717C55.2501 60.1546 49.7345 49.8467 47.2889 40.6134Z" fill="#343232" fill-opacity="0.77"/>
<path d="M21.9652 59.2996C18.8889 37.9952 33.3136 24.5233 35.753 23.5174C32.7834 34.7742 31.9846 58.6796 52.5468 64.2466C78.2495 71.2053 93.1952 78.6637 101.937 94.0434C111.697 111.214 99.5544 135.204 97.1192 142.599C97.0123 143.01 96.8979 143.419 96.7759 143.825C96.8435 143.491 96.9608 143.08 97.1192 142.599C102.282 122.767 89.9764 98.2492 64.0373 92.1139C29.2485 83.8855 23.6336 70.8535 21.9652 59.2996Z" fill="#343232" fill-opacity="0.77"/>
</svg>
